<?xml version="1.0" encoding="UTF-8" standalone="no"?>
<!DOCTYPE svg PUBLIC "-//W3C//DTD SVG 1.1//EN" "http://www.w3.org/Graphics/SVG/1.1/DTD/svg11.dtd">
<svg width="100%" height="100%" viewBox="0 0 512 512" version="1.1" xmlns="http://www.w3.org/2000/svg" xmlns:xlink="http://www.w3.org/1999/xlink" xml:space="preserve" xmlns:serif="http://www.serif.com/" style="fill-rule:evenodd;clip-rule:evenodd;stroke-linejoin:round;stroke-miterlimit:2;">
    <g transform="matrix(0.1,0,0,-0.1,0,595)">
        <path d="M911,4470C499,4430 186,4281 34,4051C5,4007 5,4006 6,3866C7,3744 12,3709 38,3608C175,3080 551,2566 950,2361C1142,2262 1314,2228 1519,2248C1763,2272 1941,2341 2170,2500C2383,2648 2455,2681 2561,2681C2657,2681 2719,2653 2909,2525C3233,2307 3398,2248 3690,2247C3889,2246 4008,2275 4183,2367C4656,2615 5107,3348 5114,3880C5115,4016 5111,4027 5012,4131C4824,4331 4562,4437 4170,4471C3887,4496 3688,4458 3370,4318C2836,4083 2765,4060 2554,4060C2379,4060 2229,4102 1934,4236C1611,4382 1504,4422 1345,4455C1249,4475 1040,4482 911,4470ZM1330,3811C1511,3769 1692,3690 1850,3584C1927,3533 2047,3426 2080,3381L2099,3353L2027,3301C1927,3228 1753,3145 1650,3120C1427,3067 1202,3116 1004,3260C880,3351 721,3536 629,3698L599,3750L627,3761C686,3784 818,3821 875,3830C971,3845 1231,3834 1330,3811ZM4350,3807C4402,3793 4462,3774 4483,3765L4521,3749L4494,3702C4323,3408 4112,3215 3875,3134C3761,3095 3601,3089 3476,3119C3364,3146 3228,3209 3110,3290L3020,3352L3040,3380C3076,3430 3193,3532 3284,3592C3397,3666 3477,3707 3602,3754C3785,3822 3893,3840 4100,3836C4227,3833 4272,3828 4350,3807Z" style="fill-rule:nonzero;"/>
    </g>
</svg>
