<?xml version="1.0" encoding="UTF-8" standalone="no"?>
<!DOCTYPE svg PUBLIC "-//W3C//DTD SVG 1.1//EN" "http://www.w3.org/Graphics/SVG/1.1/DTD/svg11.dtd">
<svg width="100%" height="100%" viewBox="0 0 500 500" version="1.1" xmlns="http://www.w3.org/2000/svg" xmlns:xlink="http://www.w3.org/1999/xlink" xml:space="preserve" xmlns:serif="http://www.serif.com/" style="fill-rule:evenodd;clip-rule:evenodd;stroke-linejoin:round;stroke-miterlimit:2;">
    <g transform="matrix(0.194494,0,0,0.194494,5,68.3556)">
        <path d="M1879.3,1412.67L2189.65,1412.67L2189.65,667.49L1839.99,317.842L1620.54,537.295L1879.3,796.055L1879.3,1412.67ZM2190.47,1568.24L1107.93,1568.24L849.16,1309.49L958.896,1199.77L1172.62,1413.49L1612.34,1413.49L1179.17,979.492L1289.72,868.945L1722.89,1302.13L1722.89,862.383L1509.99,649.482L1618.9,540.566L1080.91,0.117L0,0.117L309.531,309.648L309.531,310.469L951.523,310.469L1178.35,537.295L846.709,868.936L619.883,642.109L619.883,466.055L309.531,466.055L309.531,770.674L846.709,1307.85L628.066,1526.48L977.725,1876.14L2500,1876.14L2190.47,1568.24Z" style="fill:rgb(35,31,32);fill-rule:nonzero;"/>
    </g>
</svg>
